<svg viewBox="0 0 1200 800" xmlns="http://www.w3.org/2000/svg">
  <defs>
    <style>
      .title { font: bold 24px sans-serif; fill: #2c3e50; }
      .subtitle { font: bold 16px sans-serif; fill: #34495e; }
      .label { font: 12px sans-serif; fill: #2c3e50; }
      .small-label { font: 10px sans-serif; fill: #7f8c8d; }
      .kafka-box { fill: #e74c3c; stroke: #c0392b; stroke-width: 2; }
      .spring-box { fill: #6ab04c; stroke: #2d8a18; stroke-width: 2; }
      .client-box { fill: #3498db; stroke: #2980b9; stroke-width: 2; }
      .service-box { fill: #f39c12; stroke: #d68910; stroke-width: 2; }
      .config-box { fill: #9b59b6; stroke: #8e44ad; stroke-width: 2; }
      .controller-box { fill: #1abc9c; stroke: #16a085; stroke-width: 2; }
      .flow-arrow { stroke: #2c3e50; stroke-width: 2; fill: none; marker-end: url(#arrowhead); }
      .data-flow { stroke: #e67e22; stroke-width: 3; fill: none; marker-end: url(#arrowhead-orange); }
      .sse-flow { stroke: #8e44ad; stroke-width: 2; fill: none; marker-end: url(#arrowhead-purple); stroke-dasharray: 5,5; }
    </style>
    <marker id="arrowhead" markerWidth="10" markerHeight="7" refX="9" refY="3.5" orient="auto">
      <polygon points="0 0, 10 3.5, 0 7" fill="#2c3e50" />
    </marker>
    <marker id="arrowhead-orange" markerWidth="10" markerHeight="7" refX="9" refY="3.5" orient="auto">
      <polygon points="0 0, 10 3.5, 0 7" fill="#e67e22" />
    </marker>
    <marker id="arrowhead-purple" markerWidth="10" markerHeight="7" refX="9" refY="3.5" orient="auto">
      <polygon points="0 0, 10 3.5, 0 7" fill="#8e44ad" />
    </marker>
  </defs>

  <!-- Title -->
  <text x="600" y="30" class="title" text-anchor="middle">Kafka Streaming Application Architecture</text>

  <!-- Kafka Cluster -->
  <g id="kafka-cluster">
    <rect x="50" y="80" width="200" height="120" rx="8" class="kafka-box"/>
    <text x="150" y="105" class="subtitle" text-anchor="middle" fill="white">Kafka Cluster</text>
    
    <!-- Topics -->
    <rect x="70" y="120" width="70" height="30" rx="4" fill="#c0392b"/>
    <text x="105" y="138" class="label" text-anchor="middle" fill="white">schema-topic</text>
    
    <rect x="150" y="120" width="70" height="30" rx="4" fill="#c0392b"/>
    <text x="185" y="138" class="label" text-anchor="middle" fill="white">cohort-topic</text>
    
    <text x="150" y="175" class="small-label" text-anchor="middle" fill="white">Multiple Partitions</text>
  </g>

  <!-- Spring Boot Application Container -->
  <rect x="320" y="60" width="520" height="500" rx="12" fill="#ecf0f1" stroke="#bdc3c7" stroke-width="2"/>
  <text x="580" y="85" class="subtitle" text-anchor="middle">Spring Boot Application (Port 8080)</text>

  <!-- Configuration Layer -->
  <g id="config-layer">
    <rect x="340" y="100" width="480" height="80" rx="8" class="config-box"/>
    <text x="580" y="125" class="subtitle" text-anchor="middle" fill="white">Configuration Layer</text>
    
    <rect x="360" y="140" width="100" height="30" rx="4" fill="#8e44ad"/>
    <text x="410" y="158" class="label" text-anchor="middle" fill="white">KafkaConfig</text>
    
    <rect x="480" y="140" width="120" height="30" rx="4" fill="#8e44ad"/>
    <text x="540" y="158" class="label" text-anchor="middle" fill="white">ReceiverOptions</text>
    
    <rect x="620" y="140" width="100" height="30" rx="4" fill="#8e44ad"/>
    <text x="670" y="158" class="label" text-anchor="middle" fill="white">application.yml</text>
  </g>

  <!-- Service Layer -->
  <g id="service-layer">
    <rect x="340" y="200" width="480" height="120" rx="8" class="service-box"/>
    <text x="580" y="225" class="subtitle" text-anchor="middle" fill="white">KafkaStreamingService</text>
    
    <!-- Service Components -->
    <rect x="360" y="240" width="90" height="25" rx="4" fill="#d68910"/>
    <text x="405" y="256" class="small-label" text-anchor="middle" fill="white">Schema Stream</text>
    
    <rect x="460" y="240" width="90" height="25" rx="4" fill="#d68910"/>
    <text x="505" y="256" class="small-label" text-anchor="middle" fill="white">Cohort Stream</text>
    
    <rect x="560" y="240" width="80" height="25" rx="4" fill="#d68910"/>
    <text x="600" y="256" class="small-label" text-anchor="middle" fill="white">Sinks.Many</text>
    
    <rect x="650" y="240" width="80" height="25" rx="4" fill="#d68910"/>
    <text x="690" y="256" class="small-label" text-anchor="middle" fill="white">Flux Streams</text>
    
    <text x="580" y="285" class="small-label" text-anchor="middle">• Multicast Broadcasting</text>
    <text x="580" y="300" class="small-label" text-anchor="middle">• Backpressure Handling</text>
    <text x="580" y="315" class="small-label" text-anchor="middle">• Auto-reconnection</text>
  </g>

  <!-- Controller Layer -->
  <g id="controller-layer">
    <rect x="340" y="340" width="480" height="100" rx="8" class="controller-box"/>
    <text x="580" y="365" class="subtitle" text-anchor="middle" fill="white">StreamingController</text>
    
    <rect x="370" y="380" width="100" height="30" rx="4" fill="#16a085"/>
    <text x="420" y="398" class="label" text-anchor="middle" fill="white">/api/stream/{type}</text>
    
    <rect x="490" y="380" width="80" height="30" rx="4" fill="#16a085"/>
    <text x="530" y="398" class="label" text-anchor="middle" fill="white">/api/status</text>
    
    <rect x="590" y="380" width="120" height="30" rx="4" fill="#16a085"/>
    <text x="650" y="398" class="label" text-anchor="middle" fill="white">Server-Sent Events</text>
    
    <text x="580" y="430" class="small-label" text-anchor="middle">TEXT_EVENT_STREAM MediaType</text>
  </g>

  <!-- Model -->
  <g id="model">
    <rect x="340" y="460" width="150" height="80" rx="8" fill="#95a5a6" stroke="#7f8c8d" stroke-width="2"/>
    <text x="415" y="485" class="subtitle" text-anchor="middle" fill="white">StreamMessage</text>
    <text x="415" y="505" class="small-label" text-anchor="middle" fill="white">• topic, partition, offset</text>
    <text x="415" y="520" class="small-label" text-anchor="middle" fill="white">• key, value, timestamp</text>
  </g>

  <!-- WebFlux Runtime -->
  <g id="webflux">
    <rect x="510" y="460" width="150" height="80" rx="8" class="spring-box"/>
    <text x="585" y="485" class="subtitle" text-anchor="middle" fill="white">WebFlux Runtime</text>
    <text x="585" y="505" class="small-label" text-anchor="middle" fill="white">• Reactive Streams</text>
    <text x="585" y="520" class="small-label" text-anchor="middle" fill="white">• Non-blocking I/O</text>
  </g>

  <!-- Reactor Kafka -->
  <g id="reactor-kafka">
    <rect x="680" y="460" width="140" height="80" rx="8" fill="#e67e22" stroke="#d35400" stroke-width="2"/>
    <text x="750" y="485" class="subtitle" text-anchor="middle" fill="white">Reactor Kafka</text>
    <text x="750" y="505" class="small-label" text-anchor="middle" fill="white">• KafkaReceiver</text>
    <text x="750" y="520" class="small-label" text-anchor="middle" fill="white">• Reactive Consumer</text>
  </g>

  <!-- Client Layer -->
  <g id="clients">
    <text x="580" y="620" class="subtitle" text-anchor="middle">Client Applications</text>
    
    <rect x="400" y="640" width="120" height="60" rx="8" class="client-box"/>
    <text x="460" y="665" class="label" text-anchor="middle" fill="white">Schema Clients</text>
    <text x="460" y="685" class="small-label" text-anchor="middle" fill="white">EventSource</text>
    
    <rect x="540" y="640" width="120" height="60" rx="8" class="client-box"/>
    <text x="600" y="665" class="label" text-anchor="middle" fill="white">Cohort Clients</text>
    <text x="600" y="685" class="small-label" text-anchor="middle" fill="white">EventSource</text>
    
    <rect x="680" y="640" width="120" height="60" rx="8" class="client-box"/>
    <text x="740" y="665" class="label" text-anchor="middle" fill="white">Monitoring</text>
    <text x="740" y="685" class="small-label" text-anchor="middle" fill="white">Status Dashboard</text>
  </g>

  <!-- Data Flow Arrows -->
  
  <!-- Kafka to Service -->
  <path d="M 250 140 Q 280 140 320 200" class="data-flow"/>
  <text x="280" y="165" class="small-label">Consume Messages</text>
  
  <!-- Service to Controller -->
  <path d="M 580 320 L 580 340" class="flow-arrow"/>
  <text x="590" y="335" class="small-label">Flux&lt;StreamMessage&gt;</text>
  
  <!-- Controller to Clients (SSE) -->
  <path d="M 460 440 Q 460 580 460 640" class="sse-flow"/>
  <path d="M 600 440 Q 600 580 600 640" class="sse-flow"/>
  <path d="M 740 440 Q 740 580 740 640" class="sse-flow"/>
  
  <text x="350" y="590" class="small-label" fill="#8e44ad">Server-Sent Events (SSE)</text>
  <text x="350" y="605" class="small-label" fill="#8e44ad">Real-time Streaming</text>

  <!-- Configuration Dependencies -->
  <path d="M 580 180 L 580 200" class="flow-arrow"/>
  
  <!-- Legend -->
  <g id="legend">
    <text x="900" y="100" class="subtitle">Legend</text>
    
    <rect x="900" y="120" width="15" height="15" class="kafka-box"/>
    <text x="925" y="132" class="small-label">Kafka Infrastructure</text>
    
    <rect x="900" y="145" width="15" height="15" class="service-box"/>
    <text x="925" y="157" class="small-label">Business Logic</text>
    
    <rect x="900" y="170" width="15" height="15" class="controller-box"/>
    <text x="925" y="182" class="small-label">REST Endpoints</text>
    
    <rect x="900" y="195" width="15" height="15" class="client-box"/>
    <text x="925" y="207" class="small-label">Client Applications</text>
    
    <line x1="900" y1="220" x2="915" y2="220" class="data-flow"/>
    <text x="925" y="225" class="small-label">Data Flow</text>
    
    <line x1="900" y1="235" x2="915" y2="235" class="sse-flow"/>
    <text x="925" y="240" class="small-label">SSE Streaming</text>
  </g>

  <!-- Technology Stack -->
  <g id="tech-stack">
    <text x="900" y="280" class="subtitle">Tech Stack</text>
    <text x="900" y="300" class="small-label">• Spring Boot 3.2.0</text>
    <text x="900" y="315" class="small-label">• Spring WebFlux</text>
    <text x="900" y="330" class="small-label">• Reactor Kafka</text>
    <text x="900" y="345" class="small-label">• Project Reactor</text>
    <text x="900" y="360" class="small-label">• Jackson JSON</text>
    <text x="900" y="375" class="small-label">• Java 17</text>
  </g>

  <!-- Key Features -->
  <g id="features">
    <text x="900" y="420" class="subtitle">Key Features</text>
    <text x="900" y="440" class="small-label">✓ Reactive Streaming</text>
    <text x="900" y="455" class="small-label">✓ Multiple Topic Support</text>
    <text x="900" y="470" class="small-label">✓ Auto-reconnection</text>
    <text x="900" y="485" class="small-label">✓ Backpressure Handling</text>
    <text x="900" y="500" class="small-label">✓ Connection Monitoring</text>
    <text x="900" y="515" class="small-label">✓ Graceful Shutdown</text>
  </g>
</svg>